<svg width="145" height="145" viewBox="0 0 145 145" fill="none" xmlns="http://www.w3.org/2000/svg">
<path fill-rule="evenodd" clip-rule="evenodd" d="M72.56 0C32.4362 0 0 32.6753 0 73.0991C0 105.412 20.783 132.764 49.6145 142.445C53.2192 143.173 54.5396 140.872 54.5396 138.937C54.5396 137.242 54.4207 131.433 54.4207 125.381C34.2363 129.739 30.0331 116.667 30.0331 116.667C26.7893 108.195 21.9831 106.018 21.9831 106.018C15.3767 101.54 22.4643 101.54 22.4643 101.54C29.7925 102.024 33.6378 109.043 33.6378 109.043C40.1238 120.177 50.5754 117.031 54.7802 115.094C55.3802 110.374 57.3036 107.107 59.3458 105.292C43.2473 103.597 26.3096 97.3041 26.3096 69.2256C26.3096 61.238 29.1909 54.7029 33.7566 49.6204C33.0362 47.8055 30.5128 40.3005 34.4784 30.2559C34.4784 30.2559 40.605 28.3191 54.4192 37.7593C60.3336 36.1592 66.433 35.3452 72.56 35.3384C78.6866 35.3384 84.9321 36.1864 90.6992 37.7593C104.515 28.3191 110.642 30.2559 110.642 30.2559C114.607 40.3005 112.082 47.8055 111.362 49.6204C116.048 54.7029 118.81 61.238 118.81 69.2256C118.81 97.3041 101.873 103.475 85.6539 105.292C88.2976 107.591 90.5789 111.947 90.5789 118.846C90.5789 128.649 90.4601 136.516 90.4601 138.935C90.4601 140.872 91.782 143.173 95.3852 142.447C124.217 132.763 145 105.412 145 73.0991C145.118 32.6753 112.563 0 72.56 0Z" fill="white"/>
</svg>
