<svg width="145" height="141" viewBox="0 0 145 141" fill="none" xmlns="http://www.w3.org/2000/svg">
<path d="M72.3207 0C32.3805 0 0.0307617 32.3678 0.0307617 72.29C0.0307617 104.236 20.7418 131.327 49.459 140.875C53.0735 141.556 54.3989 139.321 54.3989 137.399C54.3989 135.682 54.3386 131.134 54.3085 125.11C34.1998 129.471 29.9588 115.411 29.9588 115.411C26.6696 107.067 21.9166 104.839 21.9166 104.839C15.3683 100.357 22.4226 100.447 22.4226 100.447C29.6817 100.953 33.495 107.893 33.495 107.893C39.9409 118.947 50.4169 115.754 54.5495 113.905C55.2001 109.23 57.0615 106.043 59.1278 104.236C43.0734 102.429 26.1997 96.2119 26.1997 68.5128C26.1997 60.6212 29.001 54.1753 33.6396 49.115C32.8263 47.2897 30.3865 39.9402 34.2721 29.9823C34.2721 29.9823 40.3264 28.0425 54.1519 37.392C59.9351 35.7835 66.0797 34.9884 72.2244 34.9522C78.369 34.9884 84.5137 35.7835 90.2969 37.392C104.032 28.0425 110.086 29.9823 110.086 29.9823C113.972 39.9402 111.532 47.2897 110.809 49.115C115.418 54.1753 118.219 60.6212 118.219 68.5128C118.219 96.2842 101.321 102.399 85.2366 104.176C87.7667 106.345 90.1161 110.778 90.1161 117.55C90.1161 127.224 90.0258 134.996 90.0258 137.345C90.0258 139.243 91.2908 141.502 94.9957 140.779C123.918 131.297 144.611 104.188 144.611 72.29C144.611 32.3678 112.243 0 72.3207 0Z" fill="#4A4A4A"/>
</svg>
