<svg width="141" height="141" viewBox="0 0 141 141" fill="none" xmlns="http://www.w3.org/2000/svg">
<path d="M120.126 120.155H99.2464V87.4376C99.2464 79.6356 99.0878 69.5952 88.3659 69.5952C77.4795 69.5952 75.8169 78.0846 75.8169 86.8619V120.155H54.9371V52.875H74.9944V62.0459H75.2646C78.067 56.7584 84.882 51.1771 95.0634 51.1771C116.219 51.1771 120.132 65.1009 120.132 83.2253L120.126 120.155ZM31.3549 43.6689C24.6339 43.6689 19.2347 38.2286 19.2347 31.537C19.2347 24.8513 24.6397 19.4169 31.3549 19.4169C38.0524 19.4169 43.4809 24.8513 43.4809 31.537C43.4809 38.2286 38.0465 43.6689 31.3549 43.6689ZM41.8241 120.155H20.8856V52.875H41.8241V120.155ZM130.572 0H10.4046C4.653 0 0 4.54725 0 10.1579V130.842C0 136.459 4.653 141 10.4046 141H130.554C136.3 141 141 136.459 141 130.842V10.1579C141 4.54725 136.3 0 130.554 0L130.572 0Z" fill="#4A4A4A"/>
</svg>
