<svg width="141" height="141" viewBox="0 0 141 141" fill="none" xmlns="http://www.w3.org/2000/svg">
<g clip-path="url(#clip0_50_177)">
<path d="M130.563 0H10.4098C4.6541 0 0 4.54395 0 10.1619V130.811C0 136.429 4.6541 141 10.4098 141H130.563C136.318 141 141 136.429 141 130.838V10.1619C141 4.54395 136.318 0 130.563 0ZM41.8318 120.153H20.9021V52.8475H41.8318V120.153ZM31.367 43.677C24.6475 43.677 19.2223 38.2518 19.2223 31.5598C19.2223 24.8678 24.6475 19.4426 31.367 19.4426C38.059 19.4426 43.4842 24.8678 43.4842 31.5598C43.4842 38.2242 38.059 43.677 31.367 43.677ZM120.153 120.153H99.2508V87.4365C99.2508 79.643 99.1131 69.5912 88.3728 69.5912C77.4949 69.5912 75.8426 78.1008 75.8426 86.8857V120.153H54.968V52.8475H75.0164V62.0455H75.2918C78.0732 56.758 84.9029 51.1676 95.0649 51.1676C116.242 51.1676 120.153 65.1023 120.153 83.2231V120.153V120.153Z" fill="white"/>
</g>
<defs>
<clipPath id="clip0_50_177">
<rect width="141" height="141" fill="white"/>
</clipPath>
</defs>
</svg>
